{"title":"Labyrinth [1986]","uid":10702021,"size":854894885,"categoryP":"video","categoryS":"movies","magnet":"?xt=urn:btih:2bdaac1e9a3c5f05feaa0e69df294e2c58c0cb02&amp;dn=Labyrinth+%5B1986%5D&amp;tr=udp%3A%2F%2Ftracker.openbittorrent.com%3A80&amp;tr=udp%3A%2F%2Fopen.demonii.com%3A1337&amp;tr=udp%3A%2F%2Ftracker.coppersurfer.tk%3A6969&amp;tr=udp%3A%2F%2Fexodus.desync.com%3A6969","seeders":1,"leechers":0,"uploader":"YaMoonSun","files":-1,"time":1407236735,"description":"Format                                   : MPEG-4\nFormat profile                           : Base Media / Version 2\nCodec ID                                 : mp42\nFile size                                : 815 MiB\nDuration                                 : 1h 41mn\nOverall bit rate mode                    : Variable\nOverall bit rate                         : 1 128 Kbps\n\nVideo\nID                                       : 1\nFormat                                   : AVC\nFormat/Info                              : Advanced Video Codec\nFormat profile                           : &lt;a class=&quot;__cf_email__&quot; href=&quot;/cdn-cgi/l/email-protection&quot; data-cfemail=&quot;a4e9c5cdcae4e8978a94&quot;&gt;[email&amp;#160;protected]&lt;/a&gt;&lt;script cf-hash='f9e31' type=&quot;text/javascript&quot;&gt;\n/* &lt;![CDATA[ */!function(){try{var t=&quot;currentScript&quot;in document?document.currentScript:function(){for(var t=document.getElementsByTagName(&quot;script&quot;),e=t.length;e--;)if(t[e].getAttribute(&quot;cf-hash&quot;))return t[e]}();if(t&amp;&amp;t.previousSibling){var e,r,n,i,c=t.previousSibling,a=c.getAttribute(&quot;data-cfemail&quot;);if(a){for(e=&quot;&quot;,r=parseInt(a.substr(0,2),16),n=2;a.length-n;n+=2)i=parseInt(a.substr(n,2),16)^r,e+=String.fromCharCode(i);e=document.createTextNode(e),c.parentNode.replaceChild(e,c)}}}catch(u){}}();/* ]]&gt; */&lt;/script&gt;\nFormat settings, CABAC                   : Yes\nFormat settings, ReFrames                : 4 frames\nCodec ID                                 : avc1\nCodec ID/Info                            : Advanced Video Coding\nDuration                                 : 1h 41mn\nBit rate                                 : 898 Kbps\nWidth                                    : 720 pixels\nHeight                                   : 480 pixels\nDisplay aspect ratio                     : 16:9\nOriginal display aspect ratio            : 16:9\nFrame rate mode                          : Variable\nFrame rate                               : 23.976 fps\nMinimum frame rate                       : 19.969 fps\nMaximum frame rate                       : 29.970 fps\nStandard                                 : NTSC\nColor space                              : YUV\nChroma subsampling                       : 4:2:0\nBit depth                                : 8 bits\nScan type                                : Progressive\nBits/(Pixel*Frame)                       : 0.108\nStream size                              : 649 MiB (80%)\nWriting library                          : x264 core 130 r2273 b3065e6\nColor primaries                          : BT.601 NTSC\nTransfer characteristics                 : BT.709\nMatrix coefficients                      : BT.601\n\nAudio\nID                                       : 2\nFormat                                   : AAC\nFormat/Info                              : Advanced Audio Codec\nFormat profile                           : LC\nCodec ID                                 : 40\nDuration                                 : 1h 41mn\nBit rate mode                            : Variable\nBit rate                                 : 224 Kbps\nMaximum bit rate                         : 332 Kbps\nChannel(s)                               : 2 channels\nChannel positions                        : Front: L R\nSampling rate                            : 48.0 KHz\nCompression mode                         : Lossy\nStream size                              : 162 MiB (20%)\nLanguage                                 : English\n\nText\nID                                       : 3\nFormat                                   : Timed Text\nMuxing mode                              : sbtl\nCodec ID                                 : tx3g\nDuration                                 : 1h 40mn\nBit rate mode                            : Variable\nBit rate                                 : 60 bps\nStream size                              : 44.1 KiB (0%)\nLanguage                                 : English\n\nMenu\nID                                       : 4\nCodec ID                                 : text\nDuration                                 : 1h 41mn\nBit rate mode                            : VBR","torrent":{"xt":"urn:btih:2bdaac1e9a3c5f05feaa0e69df294e2c58c0cb02","amp;dn":"Labyrinth+%5B1986%5D","amp;tr":["udp%3A%2F%2Ftracker.openbittorrent.com%3A80","udp%3A%2F%2Fopen.demonii.com%3A1337","udp%3A%2F%2Ftracker.coppersurfer.tk%3A6969","udp%3A%2F%2Fexodus.desync.com%3A6969"],"infoHash":"2bdaac1e9a3c5f05feaa0e69df294e2c58c0cb02","infoHashBuffer":{"type":"Buffer","data":[43,218,172,30,154,60,95,5,254,170,14,105,223,41,78,44,88,192,203,2]},"announce":[],"urlList":[]}}